<?xml version="1.0" encoding="iso-8859-1"?>
<!-- Generator: Adobe Illustrator 19.0.0, SVG Export Plug-In . SVG Version: 6.00 Build 0)  -->
<svg version="1.1" id="Capa_1" xmlns="http://www.w3.org/2000/svg" xmlns:xlink="http://www.w3.org/1999/xlink" x="0px" y="0px"
	 viewBox="0 0 512 512" style="enable-background:new 0 0 512 512;" xml:space="preserve">
<path style="fill:#E4EAF8;" d="M462.179,322.717L462.179,322.717c-7.523-13.03-166.405-288.221-171.523-297.087
	c-3.118-5.4-10.02-7.249-15.42-4.133L162.399,86.644c-5.49,3.171-7.372,10.191-4.202,15.681l62.681,108.567l247.329,142.795
	c0.096,0.057,0.188,0.118,0.284,0.175c1.44,0.841,2.861,1.712,4.239,2.642c9.804,6.625,17.985,15.412,23.956,26.027
	C495.351,380.153,502.503,392.559,462.179,322.717z"/>
<path style="fill:#D8DCE5;" d="M496.685,382.531c-1.379-2.456,5.78,9.963-31.648-54.864L199.928,174.606l20.95,36.287
	l247.329,142.795c0.096,0.057,0.188,0.118,0.284,0.175c1.441,0.841,2.862,1.712,4.239,2.642
	C482.534,363.128,490.711,371.913,496.685,382.531z"/>
<path style="fill:#6FD844;" d="M248.504,194.074l-47.827-82.838c-1.109-1.923-0.451-4.381,1.471-5.491l67.728-39.102
	c1.923-1.109,4.381-0.451,5.491,1.471l47.827,82.838L248.504,194.074z"/>
<polygon style="fill:#7CE854;" points="373.03,237.271 323.194,150.951 248.504,194.073 276.883,243.226 319.798,268.004 "/>
<polygon style="fill:#6FD844;" points="255.932,206.94 276.883,243.226 280.576,245.359 319.798,268.004 340.749,255.908 "/>
<path style="fill:#9BF57D;" d="M319.918,268.073l99.377,57.375c1.645-1.804,2.037-4.516,0.751-6.743l-46.956-81.33L319.918,268.073z
	"/>
<path style="fill:#7CE854;" d="M319.918,268.073l44.9,25.922l54.477,31.453c1.645-1.804,2.037-4.516,0.751-6.743l-14.734-25.521
	l-64.443-37.207L319.918,268.073z"/>
<path style="fill:#E4EAF8;" d="M468.206,352.683L112.131,147.103c-5.372-3.1-12.291-1.287-15.42,4.133
	c-11.888,20.59-64.141,111.095-65.146,112.836c-3.127,5.416-1.338,12.484,4.202,15.681c51.202,29.562,39.203,22.634,92.346,53.316
	v0.001l16.213,9.36c12.226,0,272.615,0,285.616,0c7.924,0,15.569,1.205,22.758,3.441c1.198,0.372,2.384,0.774,3.556,1.203
	c3.516,1.288,6.913,2.825,10.165,4.594c0.703,0.382,1.389,0.791,2.077,1.195C468.398,352.804,468.305,352.741,468.206,352.683z"/>
<path style="fill:#D8DCE5;" d="M468.497,352.861c-0.098-0.057-0.192-0.121-0.291-0.179l-54.279-31.338H107.805l20.309,11.724v0.001
	l16.213,9.36c12.226,0,272.615,0,285.616,0c7.924,0,15.569,1.205,22.758,3.441c1.198,0.372,2.384,0.774,3.556,1.203
	c3.516,1.288,6.913,2.825,10.165,4.594C467.122,352.049,467.808,352.458,468.497,352.861z"/>
<path style="fill:#008CFF;" d="M159.602,312.513l-82.838-47.827c-1.923-1.109-2.581-3.568-1.471-5.491l39.102-67.728
	c1.109-1.923,3.568-2.581,5.491-1.471l82.838,47.827L159.602,312.513z"/>
<polygon style="fill:#00C3FF;" points="289.045,287.66 202.725,237.823 159.602,312.513 211.42,342.43 257.422,342.43 "/>
<path style="fill:#5BDDFC;" d="M370.478,334.675l-81.33-46.956l-31.587,54.71c3.019,0,112.068,0,115.077,0
	C374.14,339.691,373.196,336.244,370.478,334.675z"/>
<path id="SVGCleanerId_0" style="fill:#00C3FF;" d="M370.477,334.675l-23.09-13.331h-77.654l-12.174,21.085
	c6.274,0,108.769,0,115.077,0C374.14,339.691,373.196,336.244,370.477,334.675z"/>
<polygon style="fill:#00AAF0;" points="174.9,321.344 211.42,342.43 257.422,342.43 269.596,321.344 "/>
<g>
	<path id="SVGCleanerId_0_1_" style="fill:#00C3FF;" d="M370.477,334.675l-23.09-13.331h-77.654l-12.174,21.085
		c6.274,0,108.769,0,115.077,0C374.14,339.691,373.196,336.244,370.477,334.675z"/>
</g>
<path style="fill:#E4EAF8;" d="M466.42,350.662c-2.169-1.178-4.401-2.254-6.69-3.223c-1.145-0.484-2.303-0.941-3.475-1.37
	c-8.205-3.004-17.068-4.644-26.314-4.644c-6.894,0-404.311,0-411.159,0c-6.234,0-11.288,5.053-11.288,11.288v130.293
	c0,6.339,5.137,11.479,11.479,11.479c6.862,0,404.073,0,410.967,0C508.558,494.486,536.356,388.659,466.42,350.662z
	 M437.594,440.916c-12.68,0-22.959-10.279-22.959-22.959s10.279-22.959,22.959-22.959c12.68,0,22.959,10.279,22.959,22.959
	S450.274,440.916,437.594,440.916z"/>
<path style="fill:#D8DCE5;" d="M429.941,474.405c-6.896,0-404.108,0-410.967,0c-6.345,0-11.479-5.144-11.479-11.479v20.081
	c0,6.339,5.137,11.479,11.479,11.479c6.862,0,404.073,0,410.967,0c45.859,0,81.873-40.198,75.863-86.477
	C500.843,445.5,468.768,474.405,429.941,474.405z"/>
<path style="fill:#FF5050;" d="M144.602,462.439H48.949c-2.22,0-4.019-1.799-4.019-4.019v-78.206c0-2.22,1.799-4.019,4.019-4.019
	h95.653L144.602,462.439L144.602,462.439z"/>
<rect x="144.602" y="376.193" style="fill:#FC932B;" width="99.671" height="86.247"/>
<path style="fill:#FFC850;" d="M339.787,462.439h-95.392v-86.244h95.894c2.087,0,3.779,1.692,3.779,3.779v78.185
	C344.067,460.523,342.15,462.439,339.787,462.439z"/>
<path style="fill:#ED3A3A;" d="M44.93,438.339v20.081c0,2.22,1.799,4.019,4.019,4.019h95.653v-20.081H48.949
	C46.729,442.358,44.93,440.559,44.93,438.339z"/>
<rect x="144.602" y="442.359" style="fill:#E87B18;" width="99.671" height="20.081"/>
<path style="fill:#F9B428;" d="M339.787,442.358h-95.392v20.081h95.392c2.365,0,4.281-1.917,4.281-4.281v-20.081
	C344.067,440.442,342.15,442.358,339.787,442.358z"/>
<path d="M407.141,417.726c0,16.812,13.677,30.49,30.489,30.49c16.812,0,30.49-13.678,30.49-30.49
	c0-16.812-13.678-30.489-30.49-30.489C420.818,387.238,407.141,400.915,407.141,417.726z M453.06,417.726
	c0,8.508-6.922,15.429-15.429,15.429c-8.507,0-15.428-6.922-15.428-15.429s6.922-15.428,15.428-15.428
	C446.138,402.298,453.06,409.219,453.06,417.726z"/>
<path d="M339.824,469.74c6.512,0,11.812-5.298,11.812-11.812v-78.184c0-6.236-5.073-11.31-11.31-11.31c-9.484,0-276.272,0-291.34,0
	c-6.369,0-11.549,5.181-11.549,11.549v78.206c0,6.369,5.181,11.549,11.549,11.549C58.252,469.74,324.289,469.74,339.824,469.74z
	 M251.962,383.495h84.612v71.183h-84.612V383.495z M52.497,383.495h84.612v71.183H52.497V383.495z M236.782,454.679h-84.612v-71.183
	h84.612L236.782,454.679L236.782,454.679z"/>
<path d="M226.861,486.727H19.01c-2.178,0-3.949-1.772-3.949-3.95V352.485c0-2.072,1.686-3.758,3.758-3.758
	c3.748,0,409.087,0,411.159,0c9.711,0,19.724,2.075,29.1,6.447c23.095,14.501,23.58,17.194,31.337,29.202
	c2.958,5.396,5.245,11.258,6.713,17.504c0.951,4.049,5.012,6.559,9.053,5.608c4.048-0.951,6.559-5.004,5.608-9.053
	c-3.986-16.961,9.792,9.805-214.574-378.806c-5.2-9.008-16.699-12.091-25.707-6.888L158.671,77.884
	c-9.099,5.252-12.212,16.869-6.958,25.968l48.629,84.228c-28.334-16.359-56.42-32.574-84.408-48.732c0,0,0,0-0.001-0.001
	c-8.985-5.187-20.519-2.096-25.706,6.89c-0.659,1.142-61.663,106.802-65.147,112.837c-5.182,8.977-2.238,20.66,6.959,25.967
	l84.221,48.625h-97.44C8.442,333.665,0,342.108,0,352.485v130.293c0,10.482,8.527,19.011,19.01,19.011h207.852
	c4.159,0,7.53-3.371,7.53-7.53C234.392,490.099,231.02,486.727,226.861,486.727z M83.608,258.687L119.2,197.04l73.276,42.306
	l-35.591,61.648L83.608,258.687z M205.518,246.876l73.276,42.306l-25.682,44.483h-39.637l-43.549-25.142
	C174.391,300.791,201.029,254.653,205.518,246.876z M270.64,333.665l21.301-36.893l63.901,36.893H270.64z M251.298,181.549
	l-42.306-73.275l61.646-35.593l42.307,73.277C304.003,151.12,260.24,176.387,251.298,181.549z M320.475,159l42.306,73.276
	l-42.804,24.712c-11.709-6.722-24.218-13.909-37.599-21.606l-23.55-40.791C267.77,189.429,311.533,164.163,320.475,159z
	 M335.202,265.727l35.169-20.305l34.975,60.58C386.443,295.108,363.391,281.902,335.202,265.727z M164.755,96.321
	c-1.091-1.89-0.444-4.302,1.446-5.394l112.837-65.146c1.805-1.042,4.101-0.415,5.134,1.376
	c6.865,11.89,172.785,299.273,181.286,313.996c-15.663-9.046-11.519-6.94-37.081-21.821c0.001-2.272-0.574-4.557-1.772-6.632
	c-5.053-8.752-139.723-242.008-144.679-250.591c-3.184-5.515-10.261-7.412-15.777-4.228l-67.729,39.103
	c-5.527,3.192-7.419,10.248-4.227,15.777c3.299,5.714,58.74,101.742,62.137,107.625c-11.188-6.446-20.426-11.775-29.903-17.246
	L164.755,96.321z M39.567,271.997c-1.898-1.094-2.514-3.54-1.445-5.392c0.206-0.356,64.926-112.455,65.147-112.838
	c1.037-1.794,3.339-2.41,5.134-1.377c22.566,13.027,239.642,138.356,313.971,181.275h-42.369
	c-2.406-6.298,14.37,4.856-256.318-151.424c-5.514-3.183-12.593-1.288-15.777,4.228l-39.103,67.728
	c-3.184,5.515-1.287,12.593,4.228,15.778c3.065,1.77,102.014,58.897,110.317,63.691H146.38L39.567,271.997z"/>
<path d="M506.191,427.966c-4.047-0.953-8.102,1.559-9.053,5.608c-7.354,31.296-34.971,53.152-67.16,53.152H262.003
	c-4.16,0-7.53,3.371-7.53,7.53c0,4.16,3.371,7.53,7.53,7.53h167.975c39.215,0,72.86-26.633,81.82-64.768
	C512.75,432.972,510.239,428.918,506.191,427.966z"/>
<g>
</g>
<g>
</g>
<g>
</g>
<g>
</g>
<g>
</g>
<g>
</g>
<g>
</g>
<g>
</g>
<g>
</g>
<g>
</g>
<g>
</g>
<g>
</g>
<g>
</g>
<g>
</g>
<g>
</g>
</svg>
