<?xml version="1.0" encoding="iso-8859-1"?>
<!-- Generator: Adobe Illustrator 21.0.0, SVG Export Plug-In . SVG Version: 6.00 Build 0)  -->
<svg version="1.1" id="Capa_1" xmlns="http://www.w3.org/2000/svg" xmlns:xlink="http://www.w3.org/1999/xlink" x="0px" y="0px"
	 viewBox="0 0 512 512" style="enable-background:new 0 0 512 512;" xml:space="preserve">
<rect x="125.86" y="198.851" style="fill:#D39702;" width="378.64" height="115.61"/>
<ellipse style="fill:#ECB000;" cx="315.18" cy="198.851" rx="189.32" ry="91.27"/>
<ellipse style="fill:#D39702;" cx="315.18" cy="198.851" rx="60.705" ry="29.27"/>
<path style="fill:#BA8204;" d="M263.053,213.855c10.601,8.543,29.974,14.265,52.125,14.265s41.524-5.722,52.125-14.265
	c-10.601-8.543-29.974-14.265-52.125-14.265C293.027,199.591,273.654,205.313,263.053,213.855z"/>
<path style="fill:#FFCE1C;" d="M315.178,404.415c104.56,0,189.322-40.862,189.322-91.269V198.855
	c0,50.406-84.762,91.269-189.322,91.269H32.832c-13.991,0-25.332,11.342-25.332,25.332v63.626c0,13.991,11.342,25.332,25.332,25.332
	h282.346V404.415z"/>
<path style="fill:#ECB000;" d="M37.5,379.083v-63.626c0-13.991,11.342-25.332,25.332-25.332h-30
	c-13.991,0-25.332,11.342-25.332,25.332v63.626c0,13.991,11.342,25.332,25.332,25.332h30C48.842,404.415,37.5,393.074,37.5,379.083z
	"/>
<path d="M442.312,123.067c-3.815-1.601-8.215,0.194-9.817,4.015c-1.603,3.819,0.194,8.215,4.015,9.817
	c38.442,16.129,60.49,38.711,60.49,61.956c0,21.341-18.187,41.861-51.208,57.78c-34.763,16.759-81.149,25.988-130.614,25.988
	s-95.851-9.229-130.614-25.988c-33.022-15.919-51.208-36.439-51.208-57.78s18.186-41.861,51.208-57.78
	c34.763-16.759,81.149-25.988,130.614-25.988c31.464,0,62.513,3.857,89.791,11.154c4.004,1.072,8.114-1.306,9.184-5.307
	c1.07-4.002-1.306-8.113-5.307-9.184c-28.525-7.631-60.915-11.664-93.668-11.664c-51.675,0-100.374,9.758-137.127,27.476
	c-38.495,18.558-59.694,43.877-59.694,71.293v83.769H32.833C14.729,282.624,0,297.353,0,315.456v63.627
	c0,18.104,14.729,32.832,32.833,32.832h282.345c51.675,0,100.374-9.758,137.128-27.476C490.8,365.882,512,340.563,512,313.147
	V198.855C512,169.272,486.6,141.648,442.312,123.067z M133.356,237.314c10.117,12.277,25.178,23.426,44.694,32.834
	c9.837,4.742,20.537,8.908,31.914,12.476h-76.609L133.356,237.314L133.356,237.314z M497,313.147
	c0,11.815-5.584,23.377-16.164,34.047V284.43c0-4.143-3.357-7.5-7.5-7.5s-7.5,3.357-7.5,7.5v75.058
	c-5.903,4.018-12.592,7.847-20.044,11.439c-10.283,4.958-21.591,9.25-33.688,12.846V314.68c0-4.143-3.357-7.5-7.5-7.5
	s-7.5,3.357-7.5,7.5v73.097c-16.841,4.006-34.921,6.747-53.73,8.118v-70.923c0-4.143-3.357-7.5-7.5-7.5s-7.5,3.357-7.5,7.5v71.72
	c-4.37,0.147-8.77,0.224-13.196,0.224h-40.535v-71.405c0-4.143-3.357-7.5-7.5-7.5s-7.5,3.357-7.5,7.5v71.404h-53.731v-71.404
	c0-4.143-3.358-7.5-7.5-7.5s-7.5,3.357-7.5,7.5v71.404H137.18v-71.404c0-4.143-3.358-7.5-7.5-7.5s-7.5,3.357-7.5,7.5v71.404H68.449
	v-71.404c0-4.143-3.358-7.5-7.5-7.5s-7.5,3.357-7.5,7.5v71.404H32.833C23,396.915,15,388.916,15,379.083v-63.627
	c0-9.833,8-17.832,17.833-17.832h282.345c51.675,0,100.374-9.758,137.128-27.476c19.511-9.406,34.578-20.548,44.694-32.82
	L497,313.147L497,313.147z"/>
<path d="M246.973,198.855c0,20.959,29.322,36.765,68.205,36.765s68.205-15.806,68.205-36.765c0-20.959-29.322-36.765-68.205-36.765
	S246.973,177.897,246.973,198.855z M368.383,198.855c0,10.274-22.754,21.765-53.205,21.765s-53.205-11.49-53.205-21.765
	s22.754-21.765,53.205-21.765S368.383,188.581,368.383,198.855z"/>
<g>
</g>
<g>
</g>
<g>
</g>
<g>
</g>
<g>
</g>
<g>
</g>
<g>
</g>
<g>
</g>
<g>
</g>
<g>
</g>
<g>
</g>
<g>
</g>
<g>
</g>
<g>
</g>
<g>
</g>
</svg>
