<?xml version="1.0" encoding="UTF-8" standalone="no"?>
<svg
   xmlns:dc="http://purl.org/dc/elements/1.1/"
   xmlns:cc="http://creativecommons.org/ns#"
   xmlns:rdf="http://www.w3.org/1999/02/22-rdf-syntax-ns#"
   xmlns:svg="http://www.w3.org/2000/svg"
   xmlns="http://www.w3.org/2000/svg"
   version="1.1"
   id="svg2"
   viewBox="0 0 1000 600"
   height="100%"
   width="100%">
  <defs
     id="defs4" />
  <metadata
     id="metadata7">
    <rdf:RDF>
      <cc:Work
         rdf:about="">
        <dc:format>image/svg+xml</dc:format>
        <dc:type
           rdf:resource="http://purl.org/dc/dcmitype/StillImage" />
        <dc:title></dc:title>
      </cc:Work>
    </rdf:RDF>
  </metadata>
  <g
     id="layer1">
    <path
       id="path4136"
       d="M 506.39959,171.5674 A 223.86568,73.335312 0 0 1 282.53392,244.90271 223.86568,73.335312 0 0 1 58.668235,171.5674 223.86568,73.335312 0 0 1 282.53392,98.232086 223.86568,73.335312 0 0 1 506.39959,171.5674 Z"
       style="opacity:1;fill:none;fill-opacity:1;stroke:#000000;stroke-width:3;stroke-linecap:round;stroke-linejoin:round;stroke-miterlimit:4;stroke-dasharray:none;stroke-opacity:1" />
    <path
       id="path4136-9"
       d="m 505.62765,216.34053 c 0,40.50197 -100.22808,73.33531 -223.86568,73.33531 -123.6376,0 -223.86568,-32.83334 -223.865677,-73.33531 10e-7,-17.91797 -0.192988,1.92988 0.862609,-46.30049 -0.862609,46.30049 115.069348,75.3746 223.389048,74.09071 107.07562,-1.26914 227.69824,-24.8227 224.64737,-76.40567 -1.16767,48.61545 -1.16767,39.26102 -1.16767,48.61545 z"
       style="opacity:1;fill:none;fill-opacity:1;stroke:#000000;stroke-width:3;stroke-linecap:round;stroke-linejoin:round;stroke-miterlimit:4;stroke-dasharray:none;stroke-opacity:1" />
  </g>
</svg>
