<?xml version="1.0" encoding="UTF-8" standalone="no"?>
<svg
   xmlns:dc="http://purl.org/dc/elements/1.1/"
   xmlns:cc="http://creativecommons.org/ns#"
   xmlns:rdf="http://www.w3.org/1999/02/22-rdf-syntax-ns#"
   xmlns:svg="http://www.w3.org/2000/svg"
   xmlns="http://www.w3.org/2000/svg"
   version="1.1"
   id="svg2"
   viewBox="0 0 576 512">
  <metadata
     id="metadata10">
    <rdf:RDF>
      <cc:Work
         rdf:about="">
        <dc:format>image/svg+xml</dc:format>
        <dc:type
           rdf:resource="http://purl.org/dc/dcmitype/StillImage" />
        <dc:title></dc:title>
      </cc:Work>
    </rdf:RDF>
  </metadata>
  <defs
     id="defs8" />
  <path
     style="fill:currentColor"
     id="path4"
     d="M 128,0 C 74.98,0 32,85.96 32,192 l 0,172.07 C 32,405.19 22.2,426.84 0.83,490.94 -2.62,501.3 5.09,512 16.01,512 l 280.92,0 c 13.77,0 26,-8.81 30.36,-21.88 C 340.12,451.64 352,417.72 352,364.07 L 352,192 C 352,108.4 375.67,38.48 412.44,0 Z m 352,0 c -53.02,0 -96,85.96 -96,192 0,106.04 42.98,192 96,192 53.02,0 96,-85.96 96,-192 C 576,85.96 533.02,0 480,0 Z m 0,256 c -17.67,0 -32,-28.65 -32,-64 0,-35.35 14.33,-64 32,-64 17.67,0 32,28.65 32,64 0,35.35 -14.33,64 -32,64 z" />
</svg>
