<?xml version="1.0" encoding="UTF-8" standalone="no"?>
<svg
   xmlns:dc="http://purl.org/dc/elements/1.1/"
   xmlns:cc="http://creativecommons.org/ns#"
   xmlns:rdf="http://www.w3.org/1999/02/22-rdf-syntax-ns#"
   xmlns:svg="http://www.w3.org/2000/svg"
   xmlns="http://www.w3.org/2000/svg"
   xmlns:sodipodi="http://sodipodi.sourceforge.net/DTD/sodipodi-0.dtd"
   xmlns:inkscape="http://www.inkscape.org/namespaces/inkscape"
   viewBox="0 0 576 512"
   id="svg2"
   version="1.1"
   inkscape:version="0.91 r13725"
   sodipodi:docname="toilet-paper-f.svg">
  <metadata
     id="metadata10">
    <rdf:RDF>
      <cc:Work
         rdf:about="">
        <dc:format>image/svg+xml</dc:format>
        <dc:type
           rdf:resource="http://purl.org/dc/dcmitype/StillImage" />
        <dc:title></dc:title>
      </cc:Work>
    </rdf:RDF>
  </metadata>
  <defs
     id="defs8" />
  <sodipodi:namedview
     pagecolor="#ffffff"
     bordercolor="#666666"
     borderopacity="1"
     objecttolerance="10"
     gridtolerance="10"
     guidetolerance="10"
     inkscape:pageopacity="0"
     inkscape:pageshadow="2"
     inkscape:window-width="1920"
     inkscape:window-height="1017"
     id="namedview6"
     showgrid="false"
     inkscape:zoom="0.4609375"
     inkscape:cx="288"
     inkscape:cy="256"
     inkscape:window-x="-8"
     inkscape:window-y="-8"
     inkscape:window-maximized="1"
     inkscape:current-layer="svg2" />
  <path
     d="M 128,0 C 74.98,0 32,85.96 32,192 l 0,172.07 C 32,405.19 22.2,426.84 0.83,490.94 -2.62,501.3 5.09,512 16.01,512 l 280.92,0 c 13.77,0 26,-8.81 30.36,-21.88 C 340.12,451.64 352,417.72 352,364.07 L 352,192 C 352,108.4 375.67,38.48 412.44,0 Z m 352,0 c -53.02,0 -96,85.96 -96,192 0,106.04 42.98,192 96,192 53.02,0 96,-85.96 96,-192 C 576,85.96 533.02,0 480,0 Z m 0,256 c -17.67,0 -32,-28.65 -32,-64 0,-35.35 14.33,-64 32,-64 17.67,0 32,28.65 32,64 0,35.35 -14.33,64 -32,64 z"
     id="path4"
     inkscape:connector-curvature="0"
     style="fill:currentColor"
     sodipodi:nodetypes="ssscsscsscsssssssssss" />
  <path
     sodipodi:type="star"
     style="opacity:1;fill:#ffffff;fill-opacity:1;stroke:#fcffff;stroke-width:3;stroke-linecap:round;stroke-linejoin:round;stroke-miterlimit:4;stroke-dasharray:none;stroke-opacity:1"
     id="path4149"
     sodipodi:sides="5"
     sodipodi:cx="164.88136"
     sodipodi:cy="386.16949"
     sodipodi:r1="121.66573"
     sodipodi:r2="60.832867"
     sodipodi:arg1="0.69702138"
     sodipodi:arg2="1.3253399"
     inkscape:flatsided="false"
     inkscape:rounded="0"
     inkscape:randomized="0"
     d="m 258.1695,464.27119 -78.50581,-19.0922 -60.23383,53.84754 -6.10187,-80.56327 -69.825337,-40.64597 74.734647,-30.69864 17.0794,-78.96814 52.29042,61.59046 80.38099,-8.15901 -42.41739,68.76364 z"
     inkscape:transform-center-x="0.67610729"
     inkscape:transform-center-y="-7.5069624"
     transform="matrix(1.0008532,0.14004262,-0.23218238,0.87340806,105.88914,11.428403)" />
  <path
     sodipodi:type="star"
     style="opacity:1;fill:#ffffff;fill-opacity:1;stroke:#fcffff;stroke-width:3;stroke-linecap:round;stroke-linejoin:round;stroke-miterlimit:4;stroke-dasharray:none;stroke-opacity:1"
     id="path4149-4"
     sodipodi:sides="5"
     sodipodi:cx="164.88136"
     sodipodi:cy="386.16949"
     sodipodi:r1="121.66573"
     sodipodi:r2="60.832867"
     sodipodi:arg1="0.69702138"
     sodipodi:arg2="1.3253399"
     inkscape:flatsided="false"
     inkscape:rounded="0"
     inkscape:randomized="0"
     d="m 258.1695,464.27119 -78.50581,-19.0922 -60.23383,53.84754 -6.10187,-80.56327 -69.825337,-40.64597 74.734647,-30.69864 17.0794,-78.96814 52.29042,61.59046 80.38099,-8.15901 -42.41739,68.76364 z"
     inkscape:transform-center-x="-6.0657013"
     inkscape:transform-center-y="-7.7516539"
     transform="matrix(0.99903144,0.15979416,-0.41658597,0.68116801,202.80949,-190.9452)" />
</svg>
